<svg width="56" height="56" viewBox="0 0 56 56" fill="none" xmlns="http://www.w3.org/2000/svg">
<path d="M28 0C12.5232 0 0 12.5232 0 28C0 43.4768 12.5232 56 28 56C43.4768 56 56 43.4768 56 28C56 12.5232 43.4768 0 28 0ZM31.6861 2.90869C35.4667 3.85975 37.0498 4.81198 39.0582 6.9043C37.3806 8.10346 35.1949 8.48388 32.8557 8.63274C36.1401 9.45502 39.1055 11.0937 41.5156 13.3148C42.4962 13.7165 43.3941 13.9173 44.0439 13.6574C42.1536 12.4996 41.4565 9.81772 41.9291 8.20861C44.3629 10.9283 45.4971 12.7122 48.3443 12.854C50.3409 16.1975 50.7899 17.9932 50.7308 20.8996C48.6869 20.557 46.8675 19.281 45.1072 17.7215C46.7966 20.5097 47.8127 23.7586 47.9544 27.2203C48.3561 28.1772 48.8405 28.9452 49.4785 29.2051C48.9705 27.043 50.3646 24.6565 51.8413 23.8532C51.6287 27.492 51.1679 29.5595 53.0819 31.6743C52.1367 35.4549 51.1797 37.038 49.0886 39.0464C47.8954 37.3688 47.5173 35.1949 47.3637 32.8675C46.5367 36.1637 44.8827 39.1409 42.638 41.5629C42.2599 42.5198 42.0709 43.3941 42.3308 44.0321C43.5004 42.1418 46.1705 41.4447 47.7772 41.9173C45.0599 44.3392 43.276 45.4734 43.1342 48.3325C39.7907 50.3291 37.9949 50.7781 35.0886 50.719C35.4312 48.6987 36.6954 46.8911 38.2312 45.1308C35.443 46.8203 32.1941 47.8245 28.7325 47.9544C27.7992 48.3443 27.0549 48.8405 26.7949 49.4549C28.957 48.9468 31.3435 50.3527 32.1468 51.8177C28.508 51.6169 26.4405 51.1561 24.3257 53.07C20.5451 52.1249 18.962 51.1679 16.9536 49.0768C18.6194 47.8835 20.7696 47.5055 23.0852 47.3519C19.8008 46.5249 16.8354 44.8709 14.4253 42.6262C13.4802 42.2481 12.5941 42.0591 11.9679 42.3072C13.8582 43.4768 14.5553 46.1586 14.0827 47.7654C11.6489 45.0481 10.5148 43.2641 7.66633 43.1224C5.66143 39.7789 5.2184 37.9831 5.27747 35.0886C7.30363 35.4194 9.10532 36.6835 10.8574 38.2194C9.18329 35.4312 8.17553 32.1941 8.04911 28.7443C7.64861 27.7992 7.15949 27.043 6.5357 26.7831C7.04371 28.9451 5.63781 31.3316 4.17283 32.135C4.37367 28.4962 4.83443 26.4287 2.92051 24.3139C3.86565 20.5333 4.82262 18.9502 6.91376 16.9418C8.11409 18.6076 8.49097 20.7814 8.63983 23.1089C9.45816 19.8786 11.0736 16.9052 13.3384 14.4608C13.7401 13.492 13.9291 12.5941 13.6692 11.9561C12.4996 13.8464 9.81772 14.5316 8.21924 14.0709C10.9401 11.6371 12.7241 10.503 12.8658 7.65333C15.9966 5.77367 17.7688 5.26684 20.3679 5.25975C20.5451 5.25857 20.7224 5.26093 20.8996 5.26447C20.5688 7.30954 19.281 9.12186 17.7215 10.8928C20.5215 9.20219 23.7586 8.1838 27.2203 8.0503C28.189 7.64743 28.957 7.15241 29.2169 6.51916C27.0549 7.02835 24.6684 5.62954 23.865 4.15747C27.5038 4.35949 29.5713 4.82143 31.6861 2.90869ZM33.2101 4.56506C32.5603 4.56506 32.0287 5.09435 32.0287 5.7465C32.0287 6.39865 32.5603 6.92793 33.2101 6.92793C33.8599 6.92793 34.3916 6.39865 34.3916 5.7465C34.3916 5.09435 33.8599 4.56506 33.2101 4.56506ZM15.9494 7.40051C15.6422 7.40051 15.3468 7.51629 15.1105 7.74548C14.6498 8.20506 14.6498 8.95646 15.1105 9.41603C15.5713 9.87679 16.3274 9.87679 16.7882 9.41603C17.2371 8.95646 17.2371 8.20506 16.7882 7.74548C16.5519 7.51629 16.2565 7.40051 15.9494 7.40051ZM47.411 14.7679C47.1156 14.7679 46.8084 14.8861 46.5722 15.1105C46.1114 15.5713 46.1232 16.3156 46.5722 16.7764C47.0329 17.2371 47.789 17.2371 48.2498 16.7764C48.7105 16.3156 48.7105 15.5595 48.2498 15.1105C48.0253 14.8861 47.7181 14.7679 47.411 14.7679ZM5.75595 21.6084C5.10616 21.6084 4.57451 22.1401 4.57451 22.7899C4.57451 23.4397 5.10616 23.9713 5.75595 23.9713C6.40574 23.9713 6.93738 23.4397 6.93738 22.7899C6.93738 22.1401 6.40574 21.6084 5.75595 21.6084ZM50.2464 32.0169C49.5966 32.0169 49.065 32.5485 49.065 33.1983C49.065 33.8481 49.5966 34.3797 50.2464 34.3797C50.8962 34.3797 51.4278 33.8481 51.4278 33.1983C51.4278 32.5485 50.8962 32.0169 50.2464 32.0169ZM8.59376 38.8574C8.29131 38.8574 7.98768 38.9755 7.75848 39.2C7.2989 39.6608 7.2989 40.4169 7.75848 40.8776C8.21806 41.3384 8.96945 41.3384 9.42903 40.8776C9.88861 40.4169 9.88861 39.6608 9.42903 39.2C9.19983 38.9755 8.8962 38.8574 8.59376 38.8574ZM40.0388 46.2177C39.7435 46.2177 39.4481 46.3241 39.2118 46.5603C38.7511 47.0211 38.7511 47.7772 39.2118 48.238C39.6726 48.6987 40.4169 48.6987 40.8776 48.238C41.3384 47.7772 41.3384 47.0211 40.8776 46.5603C40.6413 46.3241 40.346 46.2177 40.0388 46.2177ZM22.8017 49.0532C22.1519 49.0532 21.6203 49.5848 21.6203 50.2346C21.6203 50.8844 22.1519 51.416 22.8017 51.416C23.4515 51.416 23.9831 50.8844 23.9831 50.2346C23.9831 49.5848 23.4515 49.0532 22.8017 49.0532Z" fill="#FFD233"/>
</svg>
