<svg width="32" height="40" viewBox="0 0 32 40" fill="none" xmlns="http://www.w3.org/2000/svg">
<path d="M24.4706 8.29588L20.5929 10.2171L18.8235 14.4273L17.0541 10.2171L13.1765 8.29588L17.0541 6.3747L18.8235 2.16445L20.5929 6.3747L24.4706 8.29588Z" fill="#FFD233"/>
<path d="M24.5835 25.6964L26.3529 29.9067L28.1224 25.6964L32 23.7752L28.1224 21.8541L26.3529 17.6438L24.5835 21.8541L20.7059 23.7752L24.5835 25.6964Z" fill="#FFD233"/>
<path d="M32 12.5644L29.4212 11.2768L28.2353 8.47681L27.0494 11.2768L24.4706 12.5644L27.0494 13.852L28.2353 16.6521L29.4212 13.852L32 12.5644Z" fill="#FFD233"/>
<path d="M0.255044 38.6535C0.0880524 38.3416 5.78213e-05 37.9873 0 37.6266C0 36.9113 0.357647 36.2368 0.922352 35.8689C5.91059 32.7214 9.41176 26.8353 9.41176 20.4381C9.41176 16.1053 7.83059 11.895 5.30823 8.52271L1.6 12.549C1.01647 13.203 0 12.7534 0 11.8337V1.02192C0 0.449656 0.414118 1.76381e-05 0.941176 1.76381e-05H10.8988C11.0846 -0.0011675 11.2666 0.0573951 11.4218 0.168325C11.577 0.279255 11.6985 0.437588 11.771 0.623369C11.8435 0.809151 11.8637 1.01407 11.8291 1.21229C11.7944 1.41052 11.7065 1.59318 11.5765 1.73726L8 5.6205C11.1435 9.66725 13.1765 14.8585 13.1765 20.4381C13.1765 28.1842 9.01647 35.4806 2.84235 39.3843C2.55657 39.5683 2.23102 39.6668 1.89879 39.67C1.56656 39.6731 1.23948 39.5807 0.950777 39.4022C0.662074 39.2237 0.422036 38.9654 0.255044 38.6535Z" fill="#FFD233"/>
<path d="M18.5685 33.9255C20.652 33.9255 22.4473 34.533 23.8308 35.2793C24.6543 35.7218 25.1567 36.6156 25.1567 37.5876V38.2644C25.1567 39.219 24.4155 40 23.5096 40H13.6273C12.7215 40 11.9803 39.219 11.9803 38.2644V37.5876C11.9773 37.1113 12.0996 36.6434 12.3337 36.236C12.5677 35.8285 12.9043 35.4974 13.3062 35.2793C14.6897 34.533 16.485 33.9255 18.5685 33.9255Z" fill="#FFD233"/>
<path d="M20.3967 33.0577H16.7403C15.7438 33.0577 14.9779 32.1379 15.1097 31.0966L15.3732 28.9705C15.6285 27.3217 16.9873 26.1155 18.5685 26.1155C20.1497 26.1155 21.5085 27.3217 21.7638 28.9705L22.0273 31.0966C22.1591 32.1379 21.3932 33.0577 20.3967 33.0577Z" fill="#FFD233"/>
</svg>
