<svg width="18" height="18" viewBox="0 0 18 18" fill="none" xmlns="http://www.w3.org/2000/svg">
<path d="M15.5269 2.57499L10.1052 3.2766C10.0404 3.28435 9.9828 3.25145 9.92519 3.21856L5.19546 0.451227C4.37666 -0.0371222 3.2916 0.251764 2.8021 1.07033C2.6059 1.40427 2.52603 1.79385 2.575 2.17805L3.25226 7.61586C3.25535 7.67914 3.24941 7.74253 3.23461 7.80413L0.467741 12.5346C-0.0210662 13.3527 0.268278 14.4384 1.08639 14.9272C1.42037 15.1238 1.81014 15.2039 2.19457 15.155L7.61587 14.4527C7.68108 14.4457 7.73869 14.4786 7.77979 14.4864L12.5346 17.2372C13.3527 17.726 14.4384 17.4367 14.9272 16.6186C15.1234 16.2846 15.2033 15.8951 15.1543 15.5109L14.4527 10.0891C14.4457 10.0239 14.4621 9.94123 14.4864 9.92519L17.2537 5.19546C17.7421 4.37665 17.4532 3.2916 16.6351 2.80279C16.3154 2.58729 15.9222 2.5281 15.5269 2.57499ZM12.6834 4.87497L11.8716 7.7851C11.7286 8.37532 11.7495 8.99924 11.9767 9.55908L13.111 12.3555C13.1515 12.4715 13.1017 12.6111 12.9864 12.6511C12.937 12.6837 12.8955 12.6752 12.8385 12.6418L9.92841 11.83C9.33819 11.687 8.71404 11.7091 8.15443 11.9352L5.35732 13.0699C5.24246 13.1106 5.10244 13.0602 5.06238 12.9449C5.03028 12.8961 5.03813 12.855 5.07102 12.7974L5.88279 9.88731C6.02578 9.29709 6.00484 8.67317 5.77763 8.11333L4.64343 5.31691C4.60291 5.2009 4.65265 5.06133 4.76796 5.02127C4.80919 5.00299 4.85495 4.99752 4.89933 5.00556L7.80946 5.81734C8.39969 5.96032 9.0243 5.93893 9.58344 5.71218L12.3806 4.57751C12.4959 4.53745 12.6354 4.58719 12.6755 4.70251C12.6932 4.75831 12.6959 4.81779 12.6834 4.87497Z" fill="#FFD233"/>
</svg>
