<svg width="29" height="28" viewBox="0 0 29 28" fill="none" xmlns="http://www.w3.org/2000/svg">
<path d="M14.007 8.74388V4.59813C13.9422 4.25163 5.52344 5.62844 5.5895 5.97494V10.1207C5.65512 10.4676 14.0726 9.09081 14.007 8.74388ZM23.4106 10.1211V5.97538C23.4771 5.62888 15.0587 4.25206 14.9931 4.59856V8.74388C14.9275 9.09081 23.345 10.4676 23.4106 10.1211Z" fill="white"/>
<path d="M5.94204 12.2224C6.32236 12.2224 6.63067 11.9218 6.63067 11.5509C6.63067 11.18 6.32236 10.8793 5.94204 10.8793C5.56173 10.8793 5.25342 11.18 5.25342 11.5509C5.25342 11.9218 5.56173 12.2224 5.94204 12.2224Z" fill="white"/>
<path d="M7.94543 22.6139L11.2009 23.1731L11.3623 22.281L8.10687 21.7219L7.94543 22.6139ZM17.6378 22.281L17.7992 23.1731L21.0547 22.6139L20.8932 21.7219L17.6378 22.281Z" fill="white"/>
<path d="M23.0583 12.222C23.4389 12.222 23.7474 11.9213 23.7474 11.5504C23.7474 11.1795 23.4389 10.8789 23.0583 10.8789C22.6778 10.8789 22.3693 11.1795 22.3693 11.5504C22.3693 11.9213 22.6778 12.222 23.0583 12.222Z" fill="white"/>
<path d="M14.4999 13.3683C15.3099 13.3683 15.9664 12.7287 15.9664 11.9398C15.9664 11.1509 15.3099 10.5114 14.4999 10.5114C13.69 10.5114 13.0334 11.1509 13.0334 11.9398C13.0334 12.7287 13.69 13.3683 14.4999 13.3683Z" fill="white"/>
<path d="M13.4994 15.8686C13.4994 16.4067 13.9478 16.8437 14.5 16.8437C15.0521 16.8437 15.5005 16.4071 15.5005 15.8686C15.5005 15.33 15.0521 14.8947 14.5 14.8947C13.9478 14.8947 13.4994 15.3304 13.4994 15.8686ZM14.969 15.8686C14.969 16.1206 14.759 16.3257 14.5 16.3257C14.3773 16.3269 14.2592 16.2795 14.1715 16.1938C14.0838 16.1081 14.0336 15.9912 14.0318 15.8686C14.0318 15.6174 14.2418 15.4122 14.5 15.4122C14.759 15.4127 14.969 15.6174 14.969 15.8686ZM20.3533 13.2103L20.2286 13.8972C20.1918 14.0993 20.3594 14.2971 20.6013 14.3386L24.1048 14.9406C24.3468 14.9817 24.573 14.8518 24.6088 14.6501L24.7335 13.9628C24.7703 13.7607 24.6036 13.5634 24.3608 13.5218L20.8573 12.9198C20.6158 12.8782 20.3891 13.0086 20.3533 13.2103Z" fill="white"/>
<path d="M22.3724 23.0422V22.9692L25.1006 27.125H27.625L24.0966 22.5019C24.9011 22.2311 25.3386 21.8378 25.3386 21.2078V15.0027C25.3474 14.9717 25.3583 14.9415 25.3644 14.9091L25.5324 13.9794C25.5548 13.8587 25.5527 13.7347 25.5263 13.6148C25.4999 13.4949 25.4498 13.3814 25.3789 13.2812C25.3671 13.2637 25.3513 13.2501 25.3386 13.2335V5.41538C25.3386 4.66069 24.5406 4.37806 23.8997 4.151C23.7383 4.09432 23.576 4.0405 23.4128 3.98956V3.6855C23.4128 3.5525 22.3505 3.19331 20.7493 2.85994C20.7558 2.79738 20.7681 2.737 20.7681 2.67269C20.7681 1.68131 19.9456 0.875 18.9345 0.875C18.0468 0.875 17.3044 1.49756 17.1377 2.32138C16.261 2.23574 15.3808 2.19107 14.5 2.1875C13.6084 2.1875 12.7203 2.24088 11.8641 2.32138C11.6969 1.49756 10.9545 0.875 10.0668 0.875C9.05531 0.875 8.23325 1.68131 8.23325 2.67269C8.23325 2.73656 8.2455 2.79737 8.25206 2.8595C6.65037 3.19287 5.58856 3.55206 5.58856 3.68506V3.98869C5.41531 4.04294 5.25169 4.09719 5.10162 4.15013C4.46025 4.37719 3.66225 4.65981 3.66225 5.4145L3.66313 13.2317C3.65 13.2488 3.63425 13.2624 3.62156 13.2803C3.55101 13.3807 3.50114 13.4942 3.47485 13.6141C3.44856 13.7339 3.44638 13.8578 3.46844 13.9786L3.63644 14.9078C3.64256 14.9415 3.6535 14.973 3.66356 15.0049V17.6601H3.66225V21.2069C3.66225 21.8369 4.09975 22.2302 4.90431 22.5015L1.375 27.125H3.89981L6.62762 22.9701V23.0422C6.62762 23.604 6.97456 24.0651 7.65181 24.4278L5.94206 27.125H23.0575L21.3486 24.4274C22.0263 24.0651 22.3724 23.604 22.3724 23.0422ZM18.9323 16.7829V16.87C18.9323 17.1714 18.4751 17.3757 18.2341 17.416C17.9042 17.4711 17.5069 17.5158 17.0703 17.5508V16.7829H18.9323ZM17.0703 15.8686V15.1003C17.4599 15.1295 17.8482 15.1746 18.2341 15.2355C18.4751 15.2758 18.9323 15.4801 18.9323 15.7815V15.8686H17.0703ZM25.1015 13.9011L24.9331 14.8304C24.9075 14.9634 24.8303 15.0809 24.7185 15.1572C24.6066 15.2335 24.469 15.2624 24.3359 15.2377L20.2789 14.5403C20.2131 14.5299 20.1499 14.5065 20.0931 14.4716C20.0363 14.4366 19.987 14.3907 19.9481 14.3365C19.9091 14.2824 19.8813 14.221 19.8663 14.1561C19.8512 14.0911 19.8491 14.0238 19.8602 13.958L20.0287 13.0296C20.054 12.8963 20.1313 12.7786 20.2434 12.7022C20.3556 12.6258 20.4934 12.5971 20.6268 12.6223L24.6837 13.3188C24.9641 13.3678 25.1514 13.6277 25.1015 13.9011ZM18.9341 1.3125C19.7049 1.3125 20.3301 1.9215 20.3301 2.67269C20.3301 3.42388 19.7045 4.03288 18.9341 4.03288C18.1636 4.03288 17.538 3.42344 17.538 2.67269C17.5376 1.9215 18.1632 1.3125 18.9341 1.3125ZM10.0668 1.3125C10.8377 1.3125 11.4629 1.9215 11.4629 2.67269C11.4629 3.42388 10.8373 4.03288 10.0668 4.03288C9.29638 4.03288 8.67075 3.42344 8.67075 2.67269C8.67075 1.9215 9.29594 1.3125 10.0668 1.3125ZM8.93587 4.0775C9.13189 4.23177 9.35726 4.34452 9.59826 4.40887C9.83925 4.47322 10.0908 4.48783 10.3377 4.45181C10.5845 4.41579 10.8214 4.32989 11.0339 4.19935C11.2465 4.06881 11.4303 3.89635 11.574 3.6925C12.5458 3.58698 13.5225 3.53237 14.5 3.52887H14.5026C15.4909 3.52887 16.4775 3.59188 17.4269 3.69206C17.5707 3.89585 17.7544 4.06824 17.967 4.19876C18.1795 4.32927 18.4164 4.41516 18.6632 4.45122C18.91 4.48728 19.1615 4.47274 19.4025 4.40849C19.6435 4.34424 19.8689 4.23163 20.065 4.0775C22.6235 4.55656 24.4636 5.20669 24.4636 5.41538V12.838L20.7007 12.1918C20.6463 12.1826 20.5913 12.1779 20.5362 12.1778C20.3137 12.1763 20.0977 12.2532 19.9261 12.3949C19.7546 12.5367 19.6383 12.7342 19.5978 12.9531L19.4298 13.881C19.4075 14.0022 19.4098 14.1266 19.4364 14.2469C19.463 14.3672 19.5134 14.4809 19.5846 14.5814C19.7308 14.7906 19.9513 14.9292 20.205 14.9726L24.2615 15.6699C24.3171 15.6791 24.3713 15.6839 24.4251 15.6839C24.4378 15.6839 24.4501 15.6809 24.4627 15.6809V15.8694H19.8602V15.5054C19.8602 15.0509 19.3081 14.7433 19.0168 14.6834C18.4852 14.5727 17.8128 14.4891 17.0703 14.4318V10.0992C17.0703 8.98844 11.9306 8.98844 11.9306 10.0992V14.4318C11.1877 14.4891 10.5152 14.5727 9.98412 14.6834C9.69275 14.7433 9.14062 15.0509 9.14062 15.5054V15.8694H4.53812V15.6809C4.55037 15.6809 4.56263 15.6839 4.57488 15.6839C4.62869 15.6839 4.68338 15.6791 4.73806 15.6699L8.795 14.9726C8.91914 14.9518 9.03792 14.9066 9.14442 14.8395C9.25093 14.7724 9.34303 14.6849 9.41538 14.5819C9.4864 14.4813 9.53668 14.3675 9.56327 14.2472C9.58986 14.127 9.59223 14.0026 9.57025 13.8814L9.40181 12.9522C9.36135 12.7335 9.24524 12.5361 9.07383 12.3944C8.90241 12.2528 8.68662 12.1759 8.46425 12.1774C8.41 12.1774 8.35487 12.1822 8.29975 12.1914L4.53725 12.8376V5.41494C4.53725 5.20625 6.37737 4.55656 8.93587 4.0775ZM14.5 14.0276C13.3166 14.0276 12.3571 13.0926 12.3571 11.9398C12.3571 10.787 13.3166 9.85206 14.5 9.85206C15.6834 9.85206 16.6429 10.787 16.6429 11.9398C16.6429 13.0926 15.6834 14.0276 14.5 14.0276ZM15.963 15.8686C15.963 16.6565 15.3076 17.2948 14.5 17.2948C13.6924 17.2948 13.0379 16.6565 13.0379 15.8686C13.0379 15.0824 13.6924 14.4441 14.5 14.4441C15.3076 14.4441 15.963 15.0828 15.963 15.8686ZM10.7659 17.4164C10.5249 17.3762 10.0686 17.1719 10.0686 16.8704V16.7834H11.9306V17.5512C11.4931 17.5158 11.0967 17.4716 10.7659 17.4164ZM10.0686 15.8686V15.7815C10.0686 15.4801 10.5249 15.2758 10.7659 15.2355C11.1521 15.1746 11.5407 15.1295 11.9306 15.1003V15.8686H10.0686ZM4.0665 14.8304L3.8985 13.9011C3.88732 13.8354 3.8893 13.7681 3.90432 13.7031C3.91935 13.6381 3.94711 13.5768 3.98602 13.5226C4.02492 13.4685 4.07419 13.4226 4.13096 13.3876C4.18773 13.3526 4.25088 13.3292 4.31675 13.3188L8.37369 12.6223C8.43965 12.6098 8.50744 12.6104 8.57318 12.624C8.63891 12.6377 8.7013 12.6643 8.75677 12.7021C8.81225 12.7399 8.85971 12.7883 8.89645 12.8445C8.93319 12.9007 8.95848 12.9636 8.97087 13.0296L9.13931 13.958C9.15061 14.0238 9.1487 14.0912 9.1337 14.1562C9.1187 14.2213 9.09091 14.2827 9.05194 14.3369C9.01297 14.391 8.96361 14.4369 8.90673 14.4719C8.84985 14.5068 8.78659 14.5301 8.72063 14.5403L4.66456 15.2381C4.53128 15.2625 4.39375 15.2334 4.2818 15.1571C4.16985 15.0807 4.09249 14.9634 4.0665 14.8304ZM21.4974 23.0422C21.4974 23.786 19.5295 24.2511 17.0694 24.437V23.1731H11.9306V24.437C9.4705 24.2511 7.50263 23.7864 7.50263 23.0422V22.0968C5.7185 21.896 4.53725 21.5994 4.53725 21.2078V19.7531H11.336V21.3828H12.6573V22.5579H13.5948V21.3828H15.4065V22.5579H16.3449V21.3828H17.6653V19.7531H24.4645V21.2074C24.4645 21.5994 23.2837 21.8956 21.4987 22.0964V23.0422H21.4974Z" fill="white"/>
<path d="M4.89643 14.9406L8.39993 14.3386C8.64187 14.2962 8.80856 14.0984 8.77181 13.8963L8.64799 13.2103C8.61124 13.0086 8.38549 12.8778 8.14312 12.9198L4.63874 13.5218C4.39724 13.5634 4.23012 13.7607 4.26643 13.9628L4.39068 14.6501C4.42743 14.8518 4.65406 14.9818 4.89643 14.9406ZM10.0659 3.60281C10.5931 3.60281 11.0214 3.18675 11.0214 2.67269C11.0214 2.15863 10.5931 1.74213 10.0659 1.74213C9.53962 1.74213 9.11131 2.15863 9.11131 2.67269C9.11131 3.18675 9.53962 3.60281 10.0659 3.60281Z" fill="white"/>
<path d="M18.934 3.60281C19.4617 3.60281 19.8895 3.18638 19.8895 2.67269C19.8895 2.15899 19.4617 1.74256 18.934 1.74256C18.4063 1.74256 17.9785 2.15899 17.9785 2.67269C17.9785 3.18638 18.4063 3.60281 18.934 3.60281Z" fill="white"/>
</svg>
