<svg width="20" height="20" viewBox="0 0 20 20" fill="none" xmlns="http://www.w3.org/2000/svg">
<path d="M5.08 9.25C5.19839 8.45142 5.51465 7.69513 6 7.05L2.43 3.49C1.0179 5.09637 0.165193 7.11759 0 9.25H5.08ZM7.05 6C7.69613 5.51822 8.45234 5.20543 9.25 5.09V0C7.11759 0.165193 5.09637 1.0179 3.49 2.43L7.05 6ZM10.75 0V5C11.5737 5.1338 12.3487 5.47828 13 6L16.56 2.44C14.9416 1.0143 12.9011 0.157362 10.75 0ZM6 13C5.51822 12.3539 5.20543 11.5977 5.09 10.8H0C0.153943 12.9277 0.992392 14.9484 2.39 16.56L6 13ZM9.25 14.92C8.45142 14.8016 7.69513 14.4853 7.05 14L3.49 17.57C5.09637 18.9821 7.11759 19.8348 9.25 20V14.92ZM14 7.05C14.4818 7.69613 14.7946 8.45234 14.91 9.25H19.91C19.7561 7.12233 18.9176 5.10163 17.52 3.49L14 7.05ZM13 14C12.3539 14.4818 11.5977 14.7946 10.8 14.91V19.91C12.9277 19.7561 14.9484 18.9176 16.56 17.52L13 14ZM14.92 10.75C14.8097 11.5661 14.4931 12.3405 14 13L17.56 16.56C18.9857 14.9416 19.8426 12.9011 20 10.75H14.92Z" fill="#FFD233"/>
</svg>
