<svg width="48" height="18" viewBox="0 0 48 18" fill="none" xmlns="http://www.w3.org/2000/svg">
<path d="M24 17.5H23.9999C22.7781 17.5001 21.5693 17.2704 20.4455 16.825C19.3218 16.3797 18.3068 15.7284 17.46 14.9111C16.6133 14.0938 15.9519 13.1275 15.5134 12.0701C15.1163 11.1128 14.9088 10.0976 14.8993 9.07389C14.8998 9.04928 14.9 9.02465 14.9 9C14.9 8.97535 14.8998 8.95072 14.8993 8.92611C14.8998 8.86844 14.901 8.81075 14.9028 8.75305C14.9712 6.55285 15.9517 4.4571 17.6474 2.91327C19.3441 1.36851 21.6225 0.499748 23.9999 0.5H24C26.4235 0.5 28.7418 1.40286 30.4463 3.00081C32.1496 4.59772 33.1 6.75645 33.1 9C33.1 11.2435 32.1496 13.4023 30.4463 14.9992C28.7418 16.5971 26.4235 17.5 24 17.5ZM35.994 5.2241C36.0763 5.13406 36.1478 5.05918 36.2043 5.00144C37.2595 5.01651 38.0509 5.14911 38.7384 5.36396C39.4736 5.59371 40.111 5.92358 40.8549 6.34204C40.9998 6.42358 41.148 6.50799 41.3007 6.59498C42.5072 7.28228 43.996 8.13046 46.4241 9C43.996 9.86954 42.5072 10.7177 41.3007 11.405C41.148 11.492 40.9998 11.5764 40.8549 11.658C40.111 12.0764 39.4736 12.4063 38.7384 12.636C38.0509 12.8509 37.2595 12.9835 36.2043 12.9986C36.1478 12.9408 36.0763 12.8659 35.994 12.7759C35.7791 12.5408 35.4928 12.2053 35.2075 11.804C34.6239 10.9833 34.1 9.96503 34.1 9C34.1 8.03497 34.6239 7.0167 35.2075 6.19601C35.4928 5.79472 35.7791 5.45917 35.994 5.2241ZM6.6993 11.405C5.49283 10.7177 4.00397 9.86954 1.57594 9C4.00397 8.13046 5.49283 7.28228 6.6993 6.59498C6.85199 6.50799 7.00016 6.42358 7.14513 6.34204C7.88905 5.92358 8.52645 5.59371 9.26164 5.36396C9.94914 5.14911 10.7405 5.01651 11.7957 5.00144C11.8522 5.05918 11.9237 5.13406 12.006 5.2241C12.2209 5.45917 12.5072 5.79472 12.7925 6.19601C13.3626 6.99773 13.8758 7.988 13.8992 8.933C13.8988 8.97768 13.8988 9.02235 13.8992 9.06701C13.8757 10.012 13.3626 11.0023 12.7925 11.804C12.5072 12.2053 12.2209 12.5408 12.006 12.7759C11.9237 12.8659 11.8522 12.9408 11.7957 12.9986C10.7404 12.9835 9.94914 12.8509 9.26164 12.636C8.52645 12.4063 7.88905 12.0764 7.14513 11.658C7.00016 11.5764 6.85199 11.492 6.6993 11.405Z" fill="#FFD233" stroke="#444041"/>
</svg>
