<svg width="46" height="37" viewBox="0 0 46 37" fill="none" xmlns="http://www.w3.org/2000/svg">
<path d="M45.4999 18.4998C31.347 17.0308 34.6263 9.69929 24.943 7.903C28.6667 3.82861 33.2961 2.74373 39.3235 8.94714C31.4665 -4.80603 21.3634 0.144302 13.0788 10.2325C9.9575 12.8292 7.48089 16.6205 0.258358 18.4999C7.48089 20.3795 9.95741 24.1709 13.0788 26.7674C21.3635 36.8557 31.4666 41.806 39.3235 28.0529C33.2951 34.2572 28.6639 33.1731 24.9398 29.0966C34.6268 27.3017 31.3457 19.9694 45.5001 18.4998H45.4999ZM38.4486 18.4998C33.3517 19.0291 32.0731 20.8407 30.5642 22.4194C29.2423 24.534 26.8932 25.9465 24.2248 25.9465C21.3153 25.9465 18.7882 24.2687 17.5565 21.831C16.2299 20.5855 14.6171 19.271 11.6546 18.4999C14.5807 17.7387 16.1907 16.4491 17.5082 15.2171C18.7214 12.7282 21.2769 11.008 24.2248 11.008C26.9486 11.008 29.3403 12.4779 30.6457 14.665C32.1207 16.2234 33.4428 17.9804 38.4485 18.5001L38.4486 18.4998ZM29.8883 18.4757C29.8883 15.3367 27.3637 12.8123 24.2248 12.8123C21.0856 12.8123 18.5613 15.3366 18.5613 18.4758C18.5613 21.6149 21.0856 24.1425 24.2248 24.1425C27.3638 24.1425 29.8883 21.615 29.8883 18.4758V18.4757Z" fill="#FFD233"/>
</svg>
