<svg width="23" height="20" viewBox="0 0 23 20" fill="none" xmlns="http://www.w3.org/2000/svg">
<path d="M11.5 0C10.3381 0 9.17619 0.273466 8.22857 0.820844C7.55238 1.211 7.2 1.98241 6.92857 2.65494C6.77619 3.02862 6.66667 3.37379 6.59524 3.60984H7.49048C7.54762 3.41833 7.62857 3.18673 7.72857 2.93865C7.97619 2.32535 8.38571 1.67153 8.67619 1.50317C10.2381 0.599933 12.7619 0.599933 14.3238 1.50317C14.6143 1.67153 15.0238 2.32535 15.2714 2.93865C15.3714 3.18673 15.4524 3.41833 15.5095 3.60984H16.4048C16.3333 3.37379 16.2238 3.02862 16.0714 2.65494C15.8 1.98241 15.4476 1.211 14.7714 0.820844C13.8238 0.273466 12.6619 0 11.5 0ZM2.5881 4.41154L0.86619 6.86115H7.29048C7.41905 6.78544 7.55238 6.71417 7.68571 6.64737C6.60476 5.90357 5.18571 5.07961 3.77333 4.41154H2.5881ZM5.56667 4.41154C6.58095 4.95936 7.54286 5.54281 8.32857 6.09509C8.91429 6.50484 9.4 6.89233 9.76191 7.23973C9.9381 7.41343 10.0857 7.57822 10.2 7.73856C10.3095 7.90335 10.4048 8.06369 10.4048 8.28638V14.2991H11.0714V13.582H11.9286V14.2991H12.5952V8.28638C12.5952 8.06369 12.6905 7.90335 12.8 7.73856C12.9143 7.57822 13.0619 7.41343 13.2381 7.23973C13.6 6.89233 14.0857 6.50484 14.6714 6.09509C15.4571 5.54281 16.419 4.95936 17.4333 4.41154H5.56667ZM19.2238 4.41154C17.8143 5.07961 16.3952 5.90357 15.3143 6.64737C15.4476 6.71417 15.581 6.78544 15.7095 6.86115H22.1333L20.4095 4.41154H19.2238ZM8.42857 7.19074C6.11429 8.21067 4.48095 10.353 4.32381 12.8738H9.54762V8.28638C9.54762 8.33092 9.54762 8.26857 9.48095 8.17504C9.41429 8.07705 9.3 7.94789 9.14286 7.79646C8.95714 7.61831 8.71429 7.40897 8.42857 7.19074ZM14.5714 7.19074C14.2857 7.40897 14.0429 7.61831 13.8571 7.79646C13.7 7.94789 13.5857 8.07705 13.519 8.17504C13.4524 8.26857 13.4524 8.33092 13.4524 8.28638V12.8738H18.6762C18.5191 10.353 16.8857 8.21067 14.5714 7.19074ZM1.2619 7.97461V9.31077H1.92857V7.97461H1.2619ZM2.78571 7.97461V9.31077H3.45238V7.97461H2.78571ZM4.30952 7.97461V9.31077H4.66191C4.76191 9.15934 4.86667 9.01681 4.97619 8.87429V7.97461H4.30952ZM18.0238 7.97461V8.87429C18.1333 9.01681 18.2381 9.15934 18.3381 9.31077H18.6905V7.97461H18.0238ZM19.5476 7.97461V9.31077H20.2143V7.97461H19.5476ZM21.0714 7.97461V9.31077H21.7381V7.97461H21.0714ZM0.5 10.1125V18.263C0.5 18.9088 0.665714 19.323 0.945714 19.5813C1.22571 19.8441 1.66667 20 2.35714 20H6.93333C3.63571 18.6995 1.92857 15.9915 1.92857 13.2747V12.8738H3.46381C3.51952 11.894 3.77714 10.9587 4.2 10.1125H0.5ZM18.8 10.1125C19.2238 10.9587 19.481 11.894 19.5381 12.8738H21.0714V13.2747C21.0714 15.9915 19.3619 18.6995 16.0667 20H20.6762C21.3476 20 21.781 19.8486 22.0571 19.5858C22.3333 19.323 22.5 18.9088 22.5 18.263V10.1125H18.8ZM2.80667 13.6755C3.0219 16.8868 5.81905 20 11.5 20C17.181 20 19.9762 16.8868 20.1952 13.6755H13.4524V17.2386H9.54762V13.6755H2.80667ZM10.4048 15.1008V16.4369H12.5952V15.1008H11.9286V15.7688H11.0714V15.1008H10.4048Z" fill="#F5F5F5"/>
</svg>
