<svg width="25" height="24" viewBox="0 0 25 24" fill="none" xmlns="http://www.w3.org/2000/svg">
<path d="M19.0331 23.924L12.8693 21.059C12.4611 20.8691 12.2834 20.3836 12.4734 19.9746L16.835 10.591C17.0246 10.1824 17.5106 10.0051 17.9187 10.1946L24.0827 13.0603C24.491 13.2501 24.6684 13.7356 24.4784 14.144L20.117 23.5277C19.9269 23.9363 19.4411 24.1136 19.0331 23.924ZM4.15879 22.9002L0.0666938 13.396C-0.111547 12.9821 0.0798758 12.5016 0.49317 12.3237L2.51937 11.4515L5.05109 20.9655C5.29374 21.8747 6.22738 22.4169 7.13746 22.1746L9.15518 21.6377L5.23124 23.3274C4.81733 23.5053 4.33714 23.3142 4.1589 22.9003L4.15879 22.9002ZM5.91071 20.7363L3.2496 10.7362C3.13381 10.301 3.39331 9.85341 3.82806 9.73793L5.58736 9.26999L5.37552 10.8449C5.25031 11.7772 5.90404 12.6362 6.83768 12.762L10.9643 13.3182L9.28442 18.9769C9.1115 19.5601 9.26529 20.1632 9.63935 20.5888L6.90887 21.3151C6.4736 21.4309 6.0265 21.1719 5.91071 20.7363ZM11.5158 20.4902L10.6877 20.2442C10.2555 20.1155 10.0094 19.6617 10.1374 19.2296L13.0824 9.30949C13.2108 8.87733 13.6655 8.63126 14.0968 8.75895L16.6336 9.5128L16.634 9.51254L16.6402 9.51482L16.6333 9.51306C16.3701 9.68668 16.1606 9.93023 16.0282 10.2164L11.6663 19.6004C11.537 19.8782 11.485 20.1856 11.5156 20.4904L11.5158 20.4902ZM11.2208 12.4554L6.95674 11.8807C6.51046 11.8205 6.19663 11.4093 6.2569 10.9628L7.63868 0.707184C7.69865 0.26091 8.11039 -0.0526147 8.55574 0.00735035L15.2929 0.915253C15.7388 0.975528 16.0524 1.38696 15.9924 1.83293L15.1422 8.14234L14.3498 7.90703C13.4468 7.63837 12.4978 8.15433 12.2301 9.05629L11.2208 12.4554ZM10.9525 10.8291C11.1939 10.6712 11.3388 10.4446 11.3877 10.1496C11.4361 9.85843 11.3693 9.60078 11.1879 9.37705C11.0064 9.14887 10.7542 9.00796 10.4303 8.9543C10.1023 8.89966 9.81356 8.95052 9.56439 9.10711C9.31492 9.26374 9.16676 9.4853 9.11905 9.77241C9.07263 10.0508 9.14102 10.3111 9.32427 10.5521C9.50856 10.7849 9.76496 10.9286 10.0926 10.9832C10.4208 11.0378 10.7074 10.9864 10.9525 10.8291ZM12.2954 6.62936C12.538 6.48844 12.7548 6.34845 12.9466 6.20976C13.1381 6.07101 13.3041 5.921 13.4447 5.75873C13.5846 5.59791 13.7017 5.41863 13.7928 5.22592C13.8837 5.03258 13.9503 4.81071 13.9918 4.56087C14.057 4.16696 14.0445 3.81865 13.9538 3.5149C13.8633 3.21145 13.7112 2.94936 13.4972 2.72811C13.2834 2.50738 13.0195 2.32733 12.7053 2.18894C12.3915 2.0502 12.0434 1.94944 11.6624 1.88602C11.2648 1.81985 10.8715 1.8032 10.483 1.83551C10.0945 1.86725 9.72676 1.95167 9.37958 2.08778L9.07201 3.93853C9.4242 3.71883 9.78383 3.57129 10.1501 3.49567C10.5166 3.41936 10.8597 3.40785 11.1795 3.46113C12.2892 3.67267 12.1844 4.74821 11.6323 5.22028C11.3401 5.45151 11.0464 5.67529 10.8082 5.80675C10.2664 6.11247 9.37679 7.00218 9.64291 8.14048L11.2601 8.40939C10.8926 7.49146 11.863 6.88638 12.2954 6.62936H12.2954Z" fill="#FFD233"/>
</svg>
