<svg width="18" height="24" viewBox="0 0 18 24" fill="none" xmlns="http://www.w3.org/2000/svg">
<path d="M6.63405 23.8536L0.444814 21.4737C-0.132444 21.2521 -0.149545 20.8567 0.404485 20.5912L6.37089 22.8854C7.13785 23.1803 8.27143 23.1366 9.01388 22.7853L17.2594 18.875C17.7706 19.1015 17.7629 19.4783 17.2252 19.7325L8.70024 23.7753C8.13957 24.0405 7.2133 24.0766 6.63395 23.8536H6.63405ZM6.63405 22.2011L0.444814 19.8211C-0.046427 19.6328 -0.132189 19.3183 0.194522 19.0651L6.37089 21.4397C7.13785 21.7346 8.27143 21.6909 9.01388 21.3397L17.457 17.3358C17.7559 17.5613 17.6806 17.8647 17.2251 18.0801L8.70034 22.1228C8.13968 22.388 7.2134 22.4241 6.63405 22.2011V22.2011ZM6.63405 20.7557L0.444814 18.3756C-0.046478 18.1872 -0.132138 17.8727 0.194573 17.6194L6.37094 19.9943C7.1379 20.2889 8.27148 20.2452 9.01393 19.8943L17.457 15.8901C17.7559 16.1155 17.6806 16.419 17.2252 16.6344L8.70039 20.6774C8.13973 20.9426 7.21345 20.9784 6.6341 20.7557L6.63405 20.7557ZM6.63405 19.3101L0.444814 16.9299C-0.046478 16.7415 -0.132138 16.427 0.194573 16.1737L6.37094 18.5487C7.1379 18.8436 8.27148 18.7999 9.01393 18.4487L17.457 14.4444C17.7559 14.6702 17.6806 14.9737 17.2252 15.189L8.70039 19.2317C8.13973 19.497 7.2134 19.5328 6.63405 19.3101ZM6.63405 17.8644L0.444814 15.4846C-0.134588 15.2623 -0.149545 14.8643 0.411122 14.5987L4.8644 12.4865L6.64222 13.4219C7.42658 13.8349 8.57885 13.7823 9.32227 13.2999L12.6782 11.1215L17.1911 12.8576C17.7702 13.08 17.7858 13.4783 17.2251 13.7435L8.70029 17.7863C8.13962 18.0514 7.21335 18.0875 6.634 17.8646L6.63405 17.8644ZM6.98373 12.7733L0.686121 9.4588C0.13648 9.16935 0.113508 8.66004 0.634153 8.32205L5.99987 4.8391H7.31922L7.31999 8.15532H10.3147V4.8391H12.8745L11.4713 2.7262L17.5415 5.92102C18.0909 6.21047 18.1139 6.71973 17.5932 7.05778L8.92348 12.685C8.40278 13.0229 7.53342 13.0627 6.98378 12.7733H6.98373ZM8.08827 7.38648V4.07062H6.30948L8.8175 0L11.325 4.07062H9.54611V7.38648H8.08827Z" fill="#FFD233"/>
</svg>
