<svg width="24" height="24" viewBox="0 0 24 24" fill="none" xmlns="http://www.w3.org/2000/svg">
<path d="M22.6875 0L17.4148 1.52189L19.5496 0.0878111C18.2019 0.390045 16.4992 0.981238 14.3592 1.93542L10.8664 5.54946L12.1061 3.02489C10.9075 3.68653 9.63696 4.55393 8.41266 5.56988L7.59989 8.85258L7.42499 6.42246C6.21613 7.52521 5.07928 8.75048 4.13791 10.0421C3.1487 11.395 2.37555 12.8245 1.98819 14.2489L0.541674 13.2891C0.671305 14.499 1.07203 15.5507 1.72945 16.5156L0 15.9898C0.393009 17.1895 1.03551 17.9655 2.12194 18.5935C1.51339 20.2936 1.2279 22.0702 0.921308 23.8417L1.86782 24C2.96557 13.141 10.7121 6.21825 17.7132 3.15099L18.0681 4.03829C11.8078 6.82068 6.94145 11.5175 4.39512 18.2872C5.3262 18.2923 6.23671 18.18 7.08034 17.9655L7.3324 14.8564L8.00628 17.6899C8.56698 17.4856 9.0814 17.2406 9.53922 16.9547L8.47439 14.7339L10.1617 16.5105C10.5732 16.1838 10.9127 15.8162 11.1699 15.4129C12.7337 12.9879 14.3695 10.5782 17.5897 8.56158L15.2389 7.73453L18.8449 7.84174C19.4313 7.54563 20.0486 7.18315 20.5167 6.8411L17.9601 6.63689L21.8028 5.73835C22.1011 5.44225 22.3789 5.13082 22.631 4.8194C23.5209 3.6993 24.1227 2.53325 23.9787 1.47288C23.9118 0.942438 23.5929 0.44365 23.0733 0.164391C22.9447 0.0980217 22.8059 0.0393108 22.6875 0Z" fill="#FFD233"/>
</svg>
