<svg width="15" height="8" viewBox="0 0 15 8" fill="none" xmlns="http://www.w3.org/2000/svg">
<path d="M8.01862 7.81106L14.4871 1.02225C14.595 0.908976 14.6553 0.758482 14.6553 0.601984C14.6553 0.445486 14.595 0.294994 14.4871 0.181719L14.4797 0.17441C14.4274 0.119306 14.3644 0.0754285 14.2945 0.045445C14.2247 0.0154614 14.1495 0 14.0735 0C13.9975 0 13.9223 0.0154614 13.8524 0.045445C13.7826 0.0754285 13.7196 0.119306 13.6672 0.17441L7.57642 6.56732L1.48805 0.17441C1.43571 0.119306 1.37269 0.0754285 1.30285 0.045445C1.23301 0.0154614 1.1578 0 1.0818 0C1.00579 0 0.930581 0.0154614 0.860741 0.045445C0.7909 0.0754285 0.727889 0.119306 0.675541 0.17441L0.668231 0.181719C0.560247 0.294994 0.500008 0.445486 0.500008 0.601984C0.500008 0.758482 0.560247 0.908976 0.668231 1.02225L7.13667 7.81106C7.19355 7.87077 7.26197 7.9183 7.33777 7.95078C7.41357 7.98325 7.49518 8 7.57764 8C7.66011 8 7.74171 7.98325 7.81751 7.95078C7.89331 7.9183 7.96173 7.87077 8.01862 7.81106Z" fill="white"/>
</svg>
